<mxfile host="app.diagrams.net" agent="Mozilla/5.0 (Windows NT 10.0; Win64; x64) AppleWebKit/537.36 (KHTML, like Gecko) Chrome/134.0.0.0 Safari/537.36" version="26.2.7">
  <diagram name="Page-1" id="A7Hjl_cyjThzO0jPo-al">
    <mxGraphModel dx="788" dy="851" grid="0" gridSize="10" guides="1" tooltips="1" connect="1" arrows="1" fold="1" page="0" pageScale="1" pageWidth="850" pageHeight="1100" math="0" shadow="0">
      <root>
        <mxCell id="0" />
        <mxCell id="1" parent="0" />
        <mxCell id="FXJFJhOg0pN7OCYvzVhk-4" value="Input Request" style="curved=1;startArrow=none;endArrow=block;exitX=0.34;exitY=1;entryX=0.36;entryY=-0.01;rounded=0;" edge="1" parent="1">
          <mxGeometry relative="1" as="geometry">
            <Array as="points">
              <mxPoint x="58" y="110" />
            </Array>
            <mxPoint x="95.55999999999995" y="74" as="sourcePoint" />
            <mxPoint x="95.81372549019602" y="147" as="targetPoint" />
          </mxGeometry>
        </mxCell>
        <mxCell id="FXJFJhOg0pN7OCYvzVhk-5" value="Validate &amp; Update" style="curved=1;startArrow=none;endArrow=block;exitX=0.34;exitY=0.99;entryX=0.32;entryY=0.01;rounded=0;" edge="1" parent="1">
          <mxGeometry relative="1" as="geometry">
            <Array as="points">
              <mxPoint x="47" y="237" />
            </Array>
            <mxPoint x="90.37755102040819" y="201" as="sourcePoint" />
            <mxPoint x="89.83673469387759" y="273" as="targetPoint" />
          </mxGeometry>
        </mxCell>
        <mxCell id="FXJFJhOg0pN7OCYvzVhk-6" value="Confirmation" style="curved=1;startArrow=none;endArrow=block;exitX=0.68;exitY=0.01;entryX=0.66;entryY=0.99;rounded=0;" edge="1" parent="1">
          <mxGeometry relative="1" as="geometry">
            <Array as="points">
              <mxPoint x="202" y="237" />
            </Array>
            <mxPoint x="158.1632653061224" y="273" as="sourcePoint" />
            <mxPoint x="158.6224489795918" y="201" as="targetPoint" />
          </mxGeometry>
        </mxCell>
        <mxCell id="FXJFJhOg0pN7OCYvzVhk-7" value="Output Response" style="curved=1;startArrow=none;endArrow=block;exitX=0.64;exitY=-0.01;entryX=0.65;entryY=1;rounded=0;" edge="1" parent="1">
          <mxGeometry relative="1" as="geometry">
            <Array as="points">
              <mxPoint x="191" y="110" />
            </Array>
            <mxPoint x="153.18627450980398" y="147" as="sourcePoint" />
            <mxPoint x="152.60000000000002" y="74" as="targetPoint" />
          </mxGeometry>
        </mxCell>
        <mxCell id="FXJFJhOg0pN7OCYvzVhk-9" value="" style="sketch=0;html=1;aspect=fixed;strokeColor=none;shadow=0;fillColor=#3B8DF1;verticalAlign=top;labelPosition=center;verticalLabelPosition=bottom;shape=mxgraph.gcp2.enhance_ui_2" vertex="1" parent="1">
          <mxGeometry x="80" y="-10" width="100" height="91" as="geometry" />
        </mxCell>
        <mxCell id="FXJFJhOg0pN7OCYvzVhk-10" value="" style="verticalLabelPosition=bottom;aspect=fixed;html=1;verticalAlign=top;fillColor=strokeColor;align=center;outlineConnect=0;shape=mxgraph.fluid_power.x10340;points=[[0.685,0,0],[0.685,1,0],[0.455,0.25,0],[0.455,0.75,0],[0.57,0.75,0],[0.8,1,0],[0,0.625,0]]" vertex="1" parent="1">
          <mxGeometry x="31" y="140" width="163.22" height="74.48" as="geometry" />
        </mxCell>
        <mxCell id="FXJFJhOg0pN7OCYvzVhk-11" value="" style="sketch=0;shadow=0;dashed=0;html=1;strokeColor=none;fillColor=#505050;labelPosition=center;verticalLabelPosition=bottom;verticalAlign=top;outlineConnect=0;align=center;shape=mxgraph.office.databases.address_book_store;" vertex="1" parent="1">
          <mxGeometry x="90" y="260" width="100" height="110" as="geometry" />
        </mxCell>
      </root>
    </mxGraphModel>
  </diagram>
</mxfile>
